HIERARCHY
ROOT Hips
{
     OFFSET 23.92360 97.57650 -34.23290
     CHANNELS 6 Xposition Yposition Zposition Zrotation Xrotation Yrotation
     JOINT Spine
     {
          OFFSET 0.00000 11.89050 0.00000
          CHANNELS 3 Zrotation Xrotation Yrotation
          JOINT Spine1
          {
               OFFSET 0.00000 25.65740 0.12766
               CHANNELS 3 Zrotation Xrotation Yrotation
               JOINT HEad
               {
                    OFFSET 0.00000 8.73416 0.01134
                    CHANNELS 3 Zrotation Xrotation Yrotation
                    End Site
                    {
                         OFFSET -0.29000 12.77420 2.51395
                    }
               }
               JOINT LeftShoulder1
               {
                    OFFSET 8.99000 -0.36225 -0.22000
                    CHANNELS 3 Zrotation Xrotation Yrotation
                    JOINT LeftArm
                    {
                         OFFSET 10.28270 -0.00338 0.32212
                         CHANNELS 3 Zrotation Xrotation Yrotation
                         JOINT LeftForeArm
                         {
                              OFFSET 32.76690 0.09914 -1.42434
                              CHANNELS 3 Zrotation Xrotation Yrotation
                              JOINT LeftHand
                              {
                                   OFFSET 27.56430 0.08536 1.02216
                                   CHANNELS 3 Zrotation Xrotation Yrotation
                                   End Site
                                   {
                                        OFFSET 16.74430 -0.60000 1.50291
                                   }
                              }
                         }
                    }
               }
               JOINT RightShoulder
               {
                    OFFSET -8.99000 -0.36225 -0.22000
                    CHANNELS 3 Zrotation Xrotation Yrotation
                    JOINT RightArm
                    {
                         OFFSET -10.28270 -0.00338 0.32212
                         CHANNELS 3 Zrotation Xrotation Yrotation
                         JOINT RightForeArm
                         {
                              OFFSET -32.89710 0.09914 -1.42434
                              CHANNELS 3 Zrotation Xrotation Yrotation
                              JOINT RightHand
                              {
                                   OFFSET -27.49210 0.08536 1.02216
                                   CHANNELS 3 Zrotation Xrotation Yrotation
                                   End Site
                                   {
                                        OFFSET -16.63120 -0.60000 1.50291
                                   }
                              }
                         }
                    }
               }
          }
     }
     JOINT LeftUpLeg
     {
          OFFSET 8.94580 -8.66707 0.10165
          CHANNELS 3 Zrotation Xrotation Yrotation
          JOINT LeftLeg
          {
               OFFSET 0.00000 -44.42270 1.37270
               CHANNELS 3 Zrotation Xrotation Yrotation
               JOINT LeftFoot
               {
                    OFFSET -0.25355 -42.09240 -1.46059
                    CHANNELS 3 Zrotation Xrotation Yrotation
                    JOINT LeftToes
                    {
                         OFFSET -0.04000 -4.41509 8.49910
                         CHANNELS 3 Zrotation Xrotation Yrotation
                         End Site
                         {
                              OFFSET 0.08000 -0.04745 9.77979
                         }
                    }
               }
          }
     }
     JOINT RightUpLeg
     {
          OFFSET -8.94580 -8.66707 0.10165
          CHANNELS 3 Zrotation Xrotation Yrotation
          JOINT RightLeg
          {
               OFFSET 0.00000 -44.42270 1.37270
               CHANNELS 3 Zrotation Xrotation Yrotation
               JOINT RightFoot
               {
                    OFFSET 0.25355 -42.09240 -1.46059
                    CHANNELS 3 Zrotation Xrotation Yrotation
                    JOINT RightToes
                    {
                         OFFSET 0.04000 -4.41509 8.49910
                         CHANNELS 3 Zrotation Xrotation Yrotation
                         End Site
                         {
                              OFFSET -0.08000 -0.13745 9.77979
                         }
                    }
               }
          }
     }
}
MOTION
Frames: 16
Frame Time: 0.01667
23.92360 97.57650 -34.23290 -7.88072 -8.88902 -33.46920 5.45872 6.03527 0.52660 1.80662 12.84630 2.12295 -8.40058 12.77420 9.32454 0.00000 0.00000 0.00000 -81.48140 -43.37640 -57.35980 9.79357 33.59620 -99.29710 30.98600 12.02150 12.30620 10.34160 0.74528 2.70863 70.74250 -19.96440 69.31400 6.00612 31.19060 88.52040 2.91307 10.24210 6.55792 16.49940 -7.33653 6.92167 -4.44105 13.33870 13.52550 -3.90028 5.25809 0.39164 -4.39189 -5.24223 -2.33498 -5.33331 2.87392 -3.03258 2.69805 32.26610 -6.15078 8.12128 -30.85630 1.39996 8.15577 26.01850 -19.31070 
24.11580 97.62110 -33.64310 -7.61546 -8.70972 -33.79160 5.27943 6.04457 0.59070 1.63102 12.83690 2.22821 -8.23160 12.22210 9.67218 0.00000 0.00000 0.00000 -81.92200 -43.40060 -57.95250 9.85728 33.69070 -99.44030 31.06600 12.07390 12.48060 10.20370 0.75466 2.82029 70.97720 -19.98110 69.18590 5.77113 31.29170 88.36850 2.87526 10.24070 6.62592 16.24370 -7.54807 7.07922 -4.72962 13.91240 14.06860 -3.33799 5.08347 0.32435 -5.51666 -6.61936 -2.74537 -5.82104 2.86866 -2.77925 2.67326 31.91780 -6.04574 8.10737 -30.43460 1.36687 7.91313 25.33880 -19.65510 
24.31720 97.65490 -33.02750 -7.34327 -8.55530 -34.15470 5.08809 6.06959 0.66481 1.42657 12.85870 2.36120 -7.94253 11.47920 10.08420 0.00000 0.00000 0.00000 -82.30570 -43.36760 -58.56040 9.89084 33.75380 -99.52610 31.13840 12.12380 12.64700 10.06260 0.76076 2.91014 71.07210 -19.99790 68.96410 5.54919 31.35300 88.20860 2.70355 10.22720 6.71479 15.90630 -7.75431 7.48500 -4.85208 14.55290 14.29710 -2.89954 4.88344 0.27185 -6.65860 -8.01086 -3.14933 -6.32808 2.83486 -2.49966 2.58467 31.66270 -5.82785 8.29171 -30.13010 1.38331 7.75450 24.75630 -20.35070 
24.52980 97.68780 -32.38670 -7.04256 -8.44244 -34.54590 4.86359 6.10608 0.74674 1.17813 12.90040 2.51374 -7.63408 10.76880 10.40900 0.00000 0.00000 0.00000 -82.60300 -43.27310 -59.15290 9.93335 33.77930 -99.55910 31.25940 12.17170 12.79100 9.94708 0.76390 2.97082 71.08340 -20.06970 68.63850 5.38775 31.40370 88.07140 2.58132 10.21730 6.77539 15.45140 -7.92505 8.04202 -4.81628 15.19120 14.29370 -2.66562 4.65152 0.24233 -7.63571 -9.18145 -3.51449 -6.86990 2.76818 -2.23567 2.41352 31.50680 -5.43715 8.51889 -29.91320 1.41400 7.61848 24.17210 -21.29350 
24.75510 97.73000 -31.72290 -6.69368 -8.38621 -34.96730 4.60745 6.14508 0.82913 0.88663 12.94420 2.67142 -7.42580 10.26670 10.57660 0.00000 0.00000 0.00000 -82.80910 -43.12790 -59.68330 10.03720 33.74990 -99.56420 31.46000 12.22220 12.91990 9.85198 0.76503 3.01038 71.04560 -20.22540 68.18090 5.28470 31.46750 87.97620 2.61787 10.22110 6.78608 14.85760 -8.01531 8.63898 -4.66074 15.72710 14.21470 -2.64874 4.45026 0.23711 -8.43425 -10.06150 -3.94176 -7.46183 2.63386 -1.98186 2.16022 31.49900 -4.91245 8.67598 -29.71310 1.43085 7.46841 23.54670 -22.36240 
24.99860 97.78630 -31.04220 -6.30303 -8.38187 -35.43310 4.34018 6.18370 0.90636 0.56874 12.98650 2.82524 -7.35927 9.98286 10.63390 0.00000 0.00000 0.00000 -82.97380 -42.94050 -60.17820 10.21270 33.66320 -99.55780 31.73310 12.28810 13.08260 9.76527 0.76363 3.02813 70.93230 -20.44720 67.58000 5.21886 31.53290 87.91980 2.78477 10.23630 6.76275 14.14650 -7.99627 9.20034 -4.42907 16.08080 14.21240 -2.82920 4.40516 0.25532 -9.22211 -10.80830 -4.56511 -8.09574 2.35403 -1.71831 1.84424 31.75320 -4.39153 8.76797 -29.45390 1.42947 7.36287 23.03780 -23.45900 
25.26950 97.85690 -30.35460 -5.91154 -8.39255 -35.95140 4.09015 6.22941 0.97388 0.24830 13.04550 2.96840 -7.39832 9.81698 10.66060 0.00000 0.00000 0.00000 -83.20020 -42.73550 -60.76190 10.39860 33.56770 -99.54580 32.04910 12.38380 13.33700 9.70315 0.76031 3.02298 70.70140 -20.70200 66.86510 5.16378 31.56990 87.89110 2.97284 10.25400 6.75148 13.40050 -7.87161 9.65147 -4.17881 16.20990 14.42840 -3.22789 4.65597 0.30275 -10.24710 -11.75460 -5.37913 -8.72331 1.82112 -1.44025 1.51665 32.41630 -4.07897 8.88952 -29.08730 1.42510 7.47940 23.01900 -24.54720 
25.57370 97.94130 -29.67490 -5.57363 -8.36507 -36.51720 3.88374 6.29286 1.02035 -0.04479 13.14490 3.07872 -7.49069 9.65253 10.70310 0.00000 0.00000 0.00000 -83.59630 -42.57580 -61.56250 10.51020 33.54220 -99.55610 32.39450 12.51180 13.69280 9.69227 0.75887 3.01545 70.34020 -20.97660 66.08130 5.07596 31.56000 87.91030 3.09101 10.26630 6.78353 12.73450 -7.66800 9.91409 -3.98991 16.11850 14.96480 -3.88009 5.23440 0.38871 -11.59770 -13.11930 -6.18268 -9.26835 0.92894 -1.14881 1.26866 33.60750 -4.21490 9.06865 -28.53930 1.41659 7.99090 23.79960 -25.65190 
25.90450 98.03850 -29.02010 -5.31905 -8.26330 -37.12760 3.73255 6.37669 1.03213 -0.27709 13.28830 3.12314 -7.59675 9.41700 10.77500 0.00000 0.00000 0.00000 -84.22550 -42.53210 -62.62400 10.49020 33.63930 -99.64180 32.77930 12.65470 14.08070 9.71894 0.76254 3.03506 69.88920 -21.27920 65.25430 4.88915 31.51370 88.05080 3.12103 10.27050 6.82201 12.22520 -7.41868 9.98001 -3.92859 15.85300 15.81080 -4.66239 5.99816 0.50287 -13.08000 -14.76950 -6.75500 -9.66834 -0.39882 -0.84308 1.20559 35.36530 -5.01731 9.16177 -27.63510 1.36171 8.84867 25.24420 -26.66540 
26.24350 98.14230 -28.40760 -5.13184 -8.09121 -37.79190 3.62195 6.47508 1.00607 -0.43604 13.45900 3.08448 -7.69851 9.10157 10.87760 0.00000 0.00000 0.00000 -85.10310 -42.62970 -63.94790 10.32270 33.86580 -99.85180 33.19190 12.78250 14.39700 9.75155 0.77023 3.08362 69.43200 -21.61650 64.40730 4.52789 31.47190 88.40080 3.08924 10.26570 6.77167 11.86530 -7.15732 9.96735 -3.99537 15.49060 16.82260 -5.29948 6.72214 0.60758 -14.36700 -16.31600 -7.04679 -9.90574 -2.18318 -0.54527 1.38275 37.62580 -6.54911 8.98608 -26.23950 1.22035 9.76499 26.87050 -27.20480 
26.56720 98.23970 -27.85150 -4.96188 -7.89093 -38.51390 3.51445 6.58316 0.94616 -0.54802 13.64090 2.96126 -7.81530 8.70220 11.03880 0.00000 0.00000 0.00000 -86.19950 -42.83270 -65.56680 10.04300 34.18920 -100.20800 33.58330 12.87220 14.58000 9.80815 0.77902 3.13239 69.03000 -21.98240 63.60010 3.91606 31.47360 89.01410 3.00677 10.25020 6.53573 11.58990 -6.91993 10.03580 -4.14821 15.13070 17.82540 -5.60340 7.20859 0.66636 -15.18850 -17.35930 -7.14343 -10.00520 -4.36277 -0.33780 1.76962 40.21580 -8.58645 8.51273 -24.51460 1.01393 10.42850 28.25570 -26.88380 
26.85510 98.32020 -27.35800 -4.76066 -7.71570 -39.26850 3.37204 6.70128 0.85148 -0.65172 13.83060 2.74701 -7.96517 8.15546 11.34450 0.00000 0.00000 0.00000 -87.43380 -43.05980 -67.52520 9.74058 34.55480 -100.71800 33.92370 12.92600 14.65270 9.92867 0.78747 3.15660 68.72210 -22.40450 62.92000 2.99510 31.51630 89.90090 2.91914 10.22690 6.05731 11.34100 -6.74305 10.22800 -4.38727 14.88250 18.73330 -5.52880 7.28006 0.65968 -15.33320 -17.61060 -7.05925 -10.00400 -6.78479 -0.35072 2.30444 42.84490 -10.67670 7.84836 -22.90300 0.80532 10.63480 29.07440 -25.70930 
27.09530 98.38450 -26.92330 -4.52072 -7.59790 -40.00850 3.18268 6.83432 0.71861 -0.75613 14.03730 2.43413 -8.11295 7.38690 11.88630 0.00000 0.00000 0.00000 -88.72140 -43.21800 -69.82360 9.53863 34.93030 -101.42200 34.24180 12.97680 14.72080 10.09890 0.79439 3.15234 68.65630 -23.01610 62.46370 1.78563 31.57650 91.00460 3.04223 10.21610 5.38976 11.11070 -6.64503 10.44400 -4.76795 14.82460 19.55430 -5.03517 6.80479 0.57756 -14.66560 -16.95820 -6.67950 -9.91759 -9.24066 -0.67457 2.98328 45.14220 -12.40870 7.12275 -21.81980 0.64116 10.26960 28.96060 -24.03350 
27.28740 98.43780 -26.53640 -4.29323 -7.53594 -40.70120 2.96800 6.99136 0.55109 -0.82606 14.28120 2.03022 -8.21076 6.40066 12.67600 0.00000 0.00000 0.00000 -90.03510 -43.23640 -72.40080 9.57176 35.31600 -102.40200 34.58350 13.07160 14.92700 10.26200 0.79829 3.12795 69.10430 -24.01450 62.33960 0.43899 31.65910 92.17280 3.65496 10.24250 4.73411 10.93920 -6.61019 10.58330 -5.30844 14.97880 20.31190 -4.10843 5.83795 0.43221 -13.33950 -15.60090 -5.98712 -9.71154 -11.53190 -1.29516 3.85191 46.76960 -13.62010 6.48665 -21.45050 0.54028 9.37781 27.74630 -22.23100 
27.43680 98.47530 -26.18160 -4.16209 -7.50698 -41.35260 2.76408 7.17818 0.36090 -0.80322 14.57790 1.55916 -8.26728 5.28255 13.65740 0.00000 0.00000 0.00000 -90.95170 -42.92180 -74.89540 9.93308 35.35190 -103.61500 34.91730 13.25590 15.42720 10.38010 0.79894 3.09455 70.24330 -25.49270 62.63090 -0.80647 31.78780 93.22950 4.72190 10.30350 4.26032 10.87910 -6.60036 10.64340 -5.92613 15.33260 21.02900 -2.91982 4.67235 0.27000 -11.90180 -14.11680 -5.20668 -9.31459 -13.51630 -2.11422 4.91103 47.53640 -14.35820 6.20017 -21.84650 0.52462 8.26658 25.84050 -20.62070 
27.55050 98.48620 -25.83930 -4.18384 -7.49082 -41.99720 2.59476 7.38571 0.16297 -0.64325 14.91420 1.05035 -8.33586 4.14165 14.77960 0.00000 0.00000 0.00000 -91.52350 -42.33840 -77.20960 10.59760 35.10950 -105.03100 35.21190 13.53790 16.25080 10.44300 0.79650 3.05635 72.03690 -27.34980 63.36760 -1.76222 31.97170 94.08660 5.81868 10.36500 3.91225 10.94550 -6.57824 10.63980 -6.50051 15.85710 21.79500 -1.78711 3.65699 0.13868 -10.97930 -13.22030 -4.58131 -8.68747 -15.11090 -2.99736 6.09029 47.40140 -14.77140 6.64955 -23.00700 0.64568 7.38484 24.15990 -19.46130 
